<?xml version="1.0" encoding="iso-8859-1"?>
<!-- Generator: Adobe Illustrator 19.0.0, SVG Export Plug-In . SVG Version: 6.00 Build 0)  -->
<svg xmlns="http://www.w3.org/2000/svg" xmlns:xlink="http://www.w3.org/1999/xlink" version="1.1" id="Layer_1" x="0px" y="0px" viewBox="0 0 512 512" style="enable-background:new 0 0 512 512;" xml:space="preserve" width="512px" height="512px">
<g>
	<g>
		<path d="M498.872,0H13.128C5.879,0,0,5.878,0,13.128v485.744C0,506.123,5.879,512,13.128,512h485.744    c7.249,0,13.128-5.877,13.128-13.128V13.128C512,5.878,506.121,0,498.872,0z M485.744,485.744H26.256V26.256h459.487V485.744z" fill="#FFFFFF"/>
	</g>
</g>
<g>
	<g>
		<path d="M446.359,52.513H65.641c-7.249,0-13.128,5.878-13.128,13.128v380.718c0,7.251,5.879,13.128,13.128,13.128h380.718    c7.249,0,13.128-5.878,13.128-13.128V65.641C459.487,58.39,453.608,52.513,446.359,52.513z M433.231,433.231H78.769V78.769    h354.462V433.231z" fill="#FFFFFF"/>
	</g>
</g>
<g>
	<g>
		<path d="M367.59,242.872H144.41c-7.249,0-13.128,5.878-13.128,13.128c0,7.251,5.879,13.128,13.128,13.128h223.18    c7.249,0,13.128-5.878,13.128-13.128C380.718,248.749,374.839,242.872,367.59,242.872z" fill="#FFFFFF"/>
	</g>
</g>
<g>
	<g>
		<path d="M367.59,164.103H144.41c-7.249,0-13.128,5.878-13.128,13.128c0,7.251,5.879,13.128,13.128,13.128h223.18    c7.249,0,13.128-5.878,13.128-13.128C380.718,169.98,374.839,164.103,367.59,164.103z" fill="#FFFFFF"/>
	</g>
</g>
<g>
	<g>
		<path d="M367.59,321.641H144.41c-7.249,0-13.128,5.878-13.128,13.128c0,7.251,5.879,13.128,13.128,13.128h223.18    c7.249,0,13.128-5.878,13.128-13.128S374.839,321.641,367.59,321.641z" fill="#FFFFFF"/>
	</g>
</g>
<g>
</g>
<g>
</g>
<g>
</g>
<g>
</g>
<g>
</g>
<g>
</g>
<g>
</g>
<g>
</g>
<g>
</g>
<g>
</g>
<g>
</g>
<g>
</g>
<g>
</g>
<g>
</g>
<g>
</g>
</svg>
