<?xml version="1.0" encoding="utf-8"?>
<!-- Generator: Adobe Illustrator 19.2.1, SVG Export Plug-In . SVG Version: 6.00 Build 0)  -->
<svg version="1.1" id="Laag_1" xmlns="http://www.w3.org/2000/svg" xmlns:xlink="http://www.w3.org/1999/xlink" x="0px" y="0px"
	 viewBox="0 0 150 160.3" style="enable-background:new 0 0 150 160.3;" xml:space="preserve">
<style type="text/css">
	.st0{fill:#162C47;}
	.st1{fill:#E94F1D;}
	.st2{fill:#FBB80E;}
	.st3{fill:#F6F6F6;}
	.st4{fill:#243871;}
	.st5{fill:#009984;}
	.st6{fill:#61BB98;}
</style>
<rect x="12.5" y="113.8" class="st0" width="137.5" height="20.8"/>
<path class="st1" d="M22.9,124.3c0,5.7-4.7,10.4-10.4,10.4c-5.7,0-10.4-4.7-10.4-10.4s4.7-10.4,10.4-10.4
	C18.2,113.8,22.9,118.5,22.9,124.3"/>
<path class="st0" d="M87.1,11.9L87.1,11.9v38.9l-11.5-0.5V23.4C75.7,17.1,80.8,11.9,87.1,11.9"/>
<path class="st0" d="M75.7,11.9L75.7,11.9V50L64.2,31v-7.6C64.2,17.1,69.3,11.9,75.7,11.9"/>
<path class="st1" d="M44.6,88.7h42.6V50.2c0-11.9-9.6-21.5-21.5-21.5h-21V88.7z"/>
<path class="st1" d="M87.1,71.3H44.6v21c0,11.9,9.6,21.5,21.5,21.5h21V71.3z"/>
<path class="st2" d="M2,71.3h42.6V28.7C21.1,28.7,2,47.8,2,71.3z"/>
<path class="st3" d="M81,50c0-8.4-6.8-15.2-15.2-15.2c-8.4,0-15.2,6.8-15.2,15.2c0,8.4,6.8,15.2,15.2,15.2C74.2,65.2,81,58.4,81,50"
	/>
<path class="st4" d="M69.3,50c0-1.9-1.5-3.5-3.5-3.5c-1.9,0-3.5,1.5-3.5,3.5c0,1.9,1.5,3.5,3.5,3.5C67.8,53.4,69.3,51.9,69.3,50"/>
<path class="st5" d="M87.1,140L87.1,140V92.6H75.7v36C75.7,134.9,80.8,140,87.1,140"/>
<path class="st6" d="M75.7,128.5L75.7,128.5V97H64.2v20.1C64.2,123.4,69.3,128.5,75.7,128.5"/>
<path class="st0" d="M64.2,71.3V97h15.7c11.9,0,21.5-9.6,21.5-21.5v-4.2H64.2z"/>
</svg>
