<?xml version="1.0" encoding="utf-8"?>
<!-- Generator: Adobe Illustrator 19.2.1, SVG Export Plug-In . SVG Version: 6.00 Build 0)  -->
<svg version="1.1" id="Laag_1" xmlns="http://www.w3.org/2000/svg" xmlns:xlink="http://www.w3.org/1999/xlink" x="0px" y="0px"
	 viewBox="0 0 150 160.3" style="enable-background:new 0 0 150 160.3;" xml:space="preserve">
<style type="text/css">
	.st0{fill:#162C47;}
	.st1{fill:#52B47A;}
	.st2{fill:#009984;}
</style>
<path class="st0" d="M150,162.4H-2.9c3.3-3.5,7.2-6.8,11.6-9.8c0.8,2.2,2.1,4,3.7,5.2c2.7-2.1,4.6-5.9,4.7-10.4
	c8.6-4.7,18.6-8.6,29.5-11.3c0.5,4.6,2.2,8.5,4.6,10.8c2.7-2.6,4.6-7.3,4.7-12.8c4.5-0.8,9.1-1.5,13.8-1.9
	c0.1,9.7,1.9,18.1,4.7,22.6c2.8-4.6,4.7-13.3,4.7-23.2c2-0.1,4.1-0.1,6.2-0.1c24.7,0,47.3,5.3,64.9,14.2V162.4z"/>
<path class="st0" d="M126.9,162.4v-47c0-6.9,0.2-13.7,0.5-20.4c5-0.2,9.3-2.6,11.7-6.2c-2.2-3.4-6.2-5.8-10.8-6.2
	c1-11.7,2.5-22.8,4.4-33c0.3,0.1,0.7,0.1,1,0.1c3.5,0,6.5-2.5,8.1-6.3c-1.4-3.2-3.7-5.4-6.5-6.1c3.9-16,8.9-29.5,14.7-39.3v117.4v47
	H126.9z"/>
<path class="st1" d="M139.4,162.4l-80.9-108c6.8,1.1,14.3,3.9,22.3,8.4c-1.4,3-1.8,6.6-1.1,9.9c3.1,1.1,6.6,0,9.1-3.2
	c0.3-0.4,0.6-0.8,0.8-1.2c6.4,4.4,13,9.7,19.6,15.8c-2.3,3.8-3.2,8.4-2.7,12.3c3.4,0.8,7.3-0.9,10.3-4.9
	c6.9,7.1,13.8,15.2,20.4,24.1c4.6,6.1,8.9,12.4,12.9,18.7v28H139.4z"/>
<path class="st2" d="M106.9,162.4c-0.8-1.1-1.9-2.5-2.7-3.6c-4.3-5.7-8.4-11.6-12.1-17.5c5-6.9,8.1-14.5,8.6-20.3
	c-4.1,0.6-9.5,4.4-14.5,10.6c-1.4-2.5-2.8-4.9-4.1-7.4c2.3-3.2,3-7.7,2.2-11.7c-2.5-0.9-5.2-0.4-7.4,1.5
	C66.3,92.5,59.9,71.5,58.3,54.1l81.2,108.4H106.9z"/>
</svg>
