<?xml version="1.0" encoding="utf-8"?>
<!-- Generator: Adobe Illustrator 19.2.1, SVG Export Plug-In . SVG Version: 6.00 Build 0)  -->
<svg version="1.1" id="Laag_1" xmlns="http://www.w3.org/2000/svg" xmlns:xlink="http://www.w3.org/1999/xlink" x="0px" y="0px"
	 viewBox="0 0 200 200" style="enable-background:new 0 0 200 200;" xml:space="preserve">
<style type="text/css">
	.st0{fill:#FFFFFF;}
</style>
<g>
	<path class="st0" d="M101.4,9C47,9,3.3,48.6,3.3,97.4c0,15.8,4.7,30.7,13,43.7L0,182.5l39.1-16.7c16.7,12.6,38.6,20,62.3,20
		c54.4,0,98.1-39.5,98.1-88.4S155.8,9,101.4,9z M156.3,136.5c-4.7,0.9-6.5,2.3-9.8,3.3c-3.3,0.9-7.9,1.4-12.6,1.4
		c-7,0-12.1-1.9-15.3-5.1c-3.7-3.3-4.7-7.9-4.7-14.4V80.2h-14H81.4v37.2c0,5.1,0,8.8,1.4,11.2c1.4,2.3,3.7,3.3,7.4,3.3
		c1.4,0,2.8-0.5,5.1-0.5s4.7-0.5,4.7-0.5v5.6c-4.7,0.9-6,2.3-9.3,3.3s-7.4,1.4-12.1,1.4c-7,0-12.1-1.9-15.3-5.1
		c-3.3-3.3-5.1-7.9-5.1-14.4V80.2h-14v-9.3h14V52.3h23.3v18.6h32.6V52.3h23.3v18.6h18.6v9.3h-18.6v37.2c0,5.1,0,8.8,1.4,11.2
		c1.4,2.3,3.3,3.3,7,3.3c1.4,0,3.3-0.5,5.6-0.5c2.3,0,5.1-0.5,5.1-0.5V136.5z"/>
</g>
</svg>
